<?xml version="1.0" encoding="UTF-8"?>
<svg xmlns="http://www.w3.org/2000/svg" xmlns:xlink="http://www.w3.org/1999/xlink" width="796.64pt" height="279.38pt" viewBox="0 0 796.64 279.38" version="1.1">
<defs>
<clipPath id="clip1">
  <path d="M 0 125 L 198 125 L 198 279.378906 L 0 279.378906 Z M 0 125 "/>
</clipPath>
<clipPath id="clip2">
  <path d="M 757 19 L 796.640625 19 L 796.640625 220 L 757 220 Z M 757 19 "/>
</clipPath>
</defs>
<g id="surface1">
<path style=" stroke:none;fill-rule:nonzero;fill:rgb(4.299927%,56.498718%,76.098633%);fill-opacity:1;" d="M 234.859375 126.804688 C 234.859375 191.664063 182.289063 244.234375 117.429688 244.234375 C 52.570313 244.234375 0 191.664063 0 126.804688 C 0 61.945313 52.570313 9.371094 117.429688 9.371094 C 182.289063 9.316406 234.859375 61.945313 234.859375 126.804688 "/>
<path style=" stroke:none;fill-rule:nonzero;fill:rgb(100%,100%,100%);fill-opacity:1;" d="M 52.058594 88.285156 C 52.058594 93.464844 47.847656 97.675781 42.667969 97.675781 C 37.492188 97.675781 33.28125 93.464844 33.28125 88.285156 C 33.28125 83.109375 37.492188 78.898438 42.667969 78.898438 C 47.90625 78.898438 52.058594 83.109375 52.058594 88.285156 "/>
<path style=" stroke:none;fill-rule:nonzero;fill:rgb(100%,100%,100%);fill-opacity:1;" d="M 53.652344 114.058594 C 53.652344 119.238281 49.441406 123.445313 44.265625 123.445313 C 39.085938 123.445313 34.875 119.238281 34.875 114.058594 C 34.875 108.882813 39.085938 104.671875 44.265625 104.671875 C 49.441406 104.671875 53.652344 108.824219 53.652344 114.058594 "/>
<path style=" stroke:none;fill-rule:nonzero;fill:rgb(100%,100%,100%);fill-opacity:1;" d="M 59.398438 141.367188 C 59.398438 146.546875 55.1875 150.757813 50.007813 150.757813 C 44.832031 150.757813 40.621094 146.546875 40.621094 141.367188 C 40.621094 136.1875 44.832031 131.980469 50.007813 131.980469 C 55.1875 131.925781 59.398438 136.132813 59.398438 141.367188 "/>
<path style=" stroke:none;fill-rule:nonzero;fill:rgb(100%,100%,100%);fill-opacity:1;" d="M 72.257813 165.832031 C 72.257813 171.011719 68.046875 175.222656 62.867188 175.222656 C 57.691406 175.222656 53.480469 171.011719 53.480469 165.832031 C 53.480469 160.65625 57.691406 156.445313 62.867188 156.445313 C 68.046875 156.390625 72.257813 160.597656 72.257813 165.832031 "/>
<path style=" stroke:none;fill-rule:nonzero;fill:rgb(100%,100%,100%);fill-opacity:1;" d="M 172.789063 200.027344 C 172.789063 205.203125 168.578125 209.414063 163.398438 209.414063 C 158.222656 209.414063 154.011719 205.203125 154.011719 200.027344 C 154.011719 194.851563 158.222656 190.640625 163.398438 190.640625 C 168.578125 190.640625 172.789063 194.851563 172.789063 200.027344 "/>
<path style=" stroke:none;fill-rule:nonzero;fill:rgb(100%,100%,100%);fill-opacity:1;" d="M 189.855469 179.828125 C 189.855469 185.007813 185.644531 189.21875 180.46875 189.21875 C 175.289063 189.21875 171.078125 185.007813 171.078125 179.828125 C 171.078125 174.648438 175.289063 170.441406 180.46875 170.441406 C 185.644531 170.441406 189.855469 174.652344 189.855469 179.828125 "/>
<path style=" stroke:none;fill-rule:nonzero;fill:rgb(100%,100%,100%);fill-opacity:1;" d="M 140.359375 37.023438 C 140.359375 42.203125 136.148438 46.410156 130.972656 46.410156 C 125.792969 46.410156 121.582031 42.203125 121.582031 37.023438 C 121.582031 31.847656 125.792969 27.636719 130.972656 27.636719 C 136.148438 27.636719 140.359375 31.847656 140.359375 37.023438 "/>
<path style=" stroke:none;fill-rule:nonzero;fill:rgb(100%,100%,100%);fill-opacity:1;" d="M 115.667969 28.375 C 115.667969 33.554688 111.457031 37.761719 106.277344 37.761719 C 101.101563 37.761719 96.890625 33.554688 96.890625 28.375 C 96.890625 23.195313 101.101563 18.988281 106.277344 18.988281 C 111.457031 18.988281 115.667969 23.199219 115.667969 28.375 "/>
<path style=" stroke:none;fill-rule:nonzero;fill:rgb(39.199829%,73.298645%,33.699036%);fill-opacity:1;" d="M 182.234375 36.226563 C 216.796875 36.226563 244.816406 64.246094 244.816406 98.808594 C 244.816406 133.375 216.796875 161.394531 182.234375 161.394531 C 147.667969 161.394531 119.648438 133.375 119.648438 98.808594 C 119.648438 64.246094 147.667969 36.226563 182.234375 36.226563 "/>
<path style="fill:none;stroke-width:35;stroke-linecap:butt;stroke-linejoin:miter;stroke:rgb(100%,100%,100%);stroke-opacity:1;stroke-miterlimit:10;" d="M 1822.34375 2431.534375 C 2167.96875 2431.534375 2448.164063 2151.339063 2448.164063 1805.714063 C 2448.164063 1460.05 2167.96875 1179.854688 1822.34375 1179.854688 C 1476.679688 1179.854688 1196.484375 1460.05 1196.484375 1805.714063 C 1196.484375 2151.339063 1476.679688 2431.534375 1822.34375 2431.534375 Z M 1822.34375 2431.534375 " transform="matrix(0.1,0,0,-0.1,0,279.38)"/>
<path style=" stroke:none;fill-rule:nonzero;fill:rgb(39.199829%,73.298645%,33.699036%);fill-opacity:1;" d="M 96.492188 175.222656 C 124.773438 175.222656 147.699219 198.144531 147.699219 226.425781 C 147.699219 254.703125 124.773438 277.628906 96.492188 277.628906 C 68.214844 277.628906 45.289063 254.703125 45.289063 226.425781 C 45.289063 198.144531 68.214844 175.222656 96.492188 175.222656 "/>
<g clip-path="url(#clip1)" clip-rule="nonzero">
<path style="fill:none;stroke-width:35;stroke-linecap:butt;stroke-linejoin:miter;stroke:rgb(100%,100%,100%);stroke-opacity:1;stroke-miterlimit:10;" d="M 964.921875 1041.573438 C 1247.734375 1041.573438 1476.992188 812.354688 1476.992188 529.542188 C 1476.992188 246.76875 1247.734375 17.510938 964.921875 17.510938 C 682.148438 17.510938 452.890625 246.76875 452.890625 529.542188 C 452.890625 812.354688 682.148438 1041.573438 964.921875 1041.573438 Z M 964.921875 1041.573438 " transform="matrix(0.1,0,0,-0.1,0,279.38)"/>
</g>
<path style=" stroke:none;fill-rule:nonzero;fill:rgb(39.199829%,73.298645%,33.699036%);fill-opacity:1;" d="M 54.335938 1.75 C 73.1875 1.75 88.472656 17.03125 88.472656 35.886719 C 88.472656 54.738281 73.1875 70.023438 54.335938 70.023438 C 35.480469 70.023438 20.199219 54.738281 20.199219 35.886719 C 20.199219 17.03125 35.480469 1.75 54.335938 1.75 "/>
<path style="fill:none;stroke-width:35;stroke-linecap:butt;stroke-linejoin:miter;stroke:rgb(100%,100%,100%);stroke-opacity:1;stroke-miterlimit:10;" d="M 543.359375 2776.3 C 731.875 2776.3 884.726563 2623.4875 884.726563 2434.932813 C 884.726563 2246.417188 731.875 2093.565625 543.359375 2093.565625 C 354.804688 2093.565625 201.992188 2246.417188 201.992188 2434.932813 C 201.992188 2623.4875 354.804688 2776.3 543.359375 2776.3 Z M 543.359375 2776.3 " transform="matrix(0.1,0,0,-0.1,0,279.38)"/>
<path style=" stroke:none;fill-rule:nonzero;fill:rgb(0.39978%,1.199341%,2.398682%);fill-opacity:1;" d="M 273.664063 57.960938 L 285.042969 57.960938 L 285.042969 80.035156 C 290.503906 66.609375 301.882813 56.140625 325.09375 56.140625 C 351.492188 56.140625 369.246094 73.890625 369.246094 101.882813 L 369.246094 172.660156 L 357.867188 172.660156 L 357.867188 104.160156 C 357.867188 81.175781 343.753906 66.835938 322.589844 66.835938 C 299.605469 66.835938 285.039063 84.585938 285.039063 110.984375 L 285.039063 172.660156 L 273.660156 172.660156 L 273.660156 57.960938 L 273.664063 57.960938 "/>
<path style=" stroke:none;fill-rule:nonzero;fill:rgb(0.39978%,1.199341%,2.398682%);fill-opacity:1;" d="M 486.675781 107.800781 C 486.449219 84.359375 468.242188 65.925781 445.484375 65.925781 C 421.589844 65.925781 402.015625 84.359375 401.105469 107.800781 Z M 389.5 115.539063 C 389.5 79.808594 413.851563 55.230469 445.484375 55.230469 C 476.660156 55.230469 498.738281 80.945313 498.738281 112.351563 C 498.738281 112.351563 498.738281 115.765625 498.507813 118.039063 L 400.648438 118.039063 C 401.332031 145.578125 419.765625 165.148438 445.9375 165.148438 C 467.328125 165.148438 482.121094 156.046875 488.949219 147.398438 L 488.949219 160.824219 C 478.25 170.382813 465.28125 175.84375 445.9375 175.84375 C 412.9375 175.84375 389.496094 151.722656 389.496094 116.21875 L 389.496094 115.539063 L 389.5 115.539063 "/>
<path style=" stroke:none;fill-rule:nonzero;fill:rgb(0.39978%,1.199341%,2.398682%);fill-opacity:1;" d="M 576.796875 164.921875 C 604.789063 164.921875 625.726563 143.53125 625.726563 115.3125 C 625.726563 87.09375 604.789063 65.699219 576.796875 65.699219 C 548.804688 65.699219 527.867188 87.09375 527.867188 115.3125 C 527.867188 143.53125 548.804688 164.921875 576.796875 164.921875 Z M 576.796875 55.003906 C 610.480469 55.003906 637.105469 80.71875 637.105469 115.308594 C 637.105469 149.902344 610.480469 175.617188 576.796875 175.617188 C 543.117188 175.617188 516.488281 149.902344 516.488281 115.308594 C 516.488281 80.71875 543.117188 55.003906 576.796875 55.003906 "/>
<path style=" stroke:none;fill-rule:nonzero;fill:rgb(0.39978%,1.199341%,2.398682%);fill-opacity:1;" d="M 697.183594 57.960938 L 709.929688 57.960938 L 661.226563 161.734375 L 732.003906 161.734375 L 732.003906 124.1875 L 743.835938 124.1875 L 743.835938 216.582031 L 732.003906 216.582031 L 732.003906 172.660156 L 643.246094 172.660156 L 697.183594 57.960938 "/>
<g clip-path="url(#clip2)" clip-rule="nonzero">
<path style=" stroke:none;fill-rule:nonzero;fill:rgb(0.39978%,1.199341%,2.398682%);fill-opacity:1;" d="M 780.25 27.238281 C 780.25 22.457031 784.121094 19.046875 788.445313 19.046875 C 792.769531 19.046875 796.636719 22.457031 796.636719 27.238281 C 796.636719 31.789063 792.769531 35.203125 788.445313 35.203125 C 784.121094 35.203125 780.25 31.789063 780.25 27.238281 Z M 782.753906 57.960938 L 794.132813 57.960938 L 794.132813 188.589844 C 794.132813 214.308594 779.339844 219.539063 765.003906 219.539063 C 762.273438 219.539063 759.3125 219.3125 757.492188 218.859375 L 757.492188 208.160156 C 760.222656 208.617188 763.410156 208.84375 766.140625 208.84375 C 777.746094 208.84375 782.753906 203.15625 782.753906 188.589844 L 782.753906 57.960938 "/>
</g>
</g>
</svg>
